# xmcd
#
# Track frame offsets: 
#        150
#        16623
#        29730
#        43806
#        54968
#        68572
#        83368
#        97243
#        108646
#        121063
#        133126
#        145894
#        158259
#        172503
#        185130
#        196849
#        252539
#        265182
#        276253
#        287256
#        301640
#        312043
#
# Disc length: 4302 seconds
#
# Revision: 0
# Processed by: cddbd v1.5.2PL0 Copyright (c) Steve Scherf et al.
# Submitted via: ExactAudioCopy v0.99pb4
#
DISCID=2110cc16
DTITLE=Rev. Kelsey And His Congregation - Complete Recorded Works
DYEAR=1996
DGENRE=Gospel
TTITLE0=Old Ship Of Zion
TTITLE1=Hide My Soul
TTITLE2=Lord Send The Rain (Lena Phillips, vcl)
TTITLE3=I'm A Soldier (MF-133)
TTITLE4=Lord I've Tried
TTITLE5=Babylon
TTITLE6=Tell Me How Long (48-S-234)
TTITLE7=Evening Prayer
TTITLE8=The Storm Is Passing Over
TTITLE9=Little Boy (MF-132)
TTITLE10=Heaven Is Mine
TTITLE11=I'm A Soldier (MGM 10797)
TTITLE12=I'm Striving To Make It To The Promised Land (Lena Phillips, 
TTITLE12=vcl)
TTITLE13=All That I Have Is In Jesus (Lena Phillips, vcl)
TTITLE14=After Awhile (Lena Phillips, vcl)
TTITLE15=Marriage Prologue And Benediction (with Bishop Wells) Wedding
TTITLE15=Ceremony Pts. 1 and 2
TTITLE16=I'm A Witness For My Lord
TTITLE17=I'm A Royal Child
TTITLE18=Where Is The Lion In The Tribe Of Judah
TTITLE19=Shine For Jesus
TTITLE20=Little Boy (DW 81731)
TTITLE21=Low Down The Chariot
EXTD=
EXTT0=
EXTT1=
EXTT2=
EXTT3=
EXTT4=
EXTT5=
EXTT6=
EXTT7=
EXTT8=
EXTT9=
EXTT10=
EXTT11=
EXTT12=
EXTT13=
EXTT14=
EXTT15=
EXTT16=
EXTT17=
EXTT18=
EXTT19=
EXTT20=
EXTT21=
PLAYORDER=
